<?xml version="1.0" encoding="UTF-8"?>
<svg width="215.19mm" height="143.58mm" desc="example of SVG flowchart" title="Flowchart SVG Example" version="1.1" viewBox="0 0 610.00 407.00" xml:space="preserve" xmlns="http://www.w3.org/2000/svg" xmlns:cc="http://creativecommons.org/ns#" xmlns:dc="http://purl.org/dc/elements/1.1/" xmlns:rdf="http://www.w3.org/1999/02/22-rdf-syntax-ns#" xmlns:xlink="http://www.w3.org/1999/xlink"><metadata><rdf:RDF><cc:Work rdf:about=""><dc:format>image/svg+xml</dc:format><dc:type rdf:resource="http://purl.org/dc/dcmitype/StillImage"/></cc:Work></rdf:RDF></metadata>
<path d="m556.38 14.42v165.06c0 6.48-5.4 11.88-11.88 11.88h-75.06c-6.66 0-12.06 5.4-12.06 12.06v48.06c0 6.48-5.4 11.88-12.06 11.88h-52.38c-6.66 0-12.06-5.4-12.06-11.88v-68.04c0-6.48-5.22-11.88-11.88-11.88l-115.74-0.9c-6.48 0-11.88-5.4-11.88-11.88v-49.5c0-6.66 5.4-12.06 12.06-12.06h38.16c6.66 0 11.88-5.22 12.06-11.88l0.72-71.1c0-6.48 5.4-11.88 11.88-11.88h228.24c6.48 0 11.88 5.4 11.88 12.06z" fill="#005493"/><path d="m556.38 14.42v165.06c0 6.48-5.4 11.88-11.88 11.88h-75.06c-6.66 0-12.06 5.4-12.06 12.06v48.06c0 6.48-5.4 11.88-12.06 11.88h-52.38c-6.66 0-12.06-5.4-12.06-11.88v-68.04c0-6.48-5.22-11.88-11.88-11.88l-115.74-0.9c-6.48 0-11.88-5.4-11.88-11.88v-49.5c0-6.66 5.4-12.06 12.06-12.06v0h38.16c6.66 0 11.88-5.22 12.06-11.88l0.72-71.1c0-6.48 5.4-11.88 11.88-11.88h228.24c6.48 0 11.88 5.4 11.88 12.06v0" fill="none" stroke="#005493" stroke-linecap="round" stroke-linejoin="round" stroke-width=".9"/><path d="m14.94 209.36h133.56c6.48 0 11.88 5.4 11.88 12.06v165.06c0 6.48-5.4 11.88-11.88 11.88h-133.56c-6.66 0-12.06-5.4-12.06-11.88v-165.06c0-6.66 5.4-12.06 12.06-12.06z" fill="#005493"/><path d="m14.94 209.36h133.56c6.48 0 11.88 5.4 11.88 12.06v165.06c0 6.48-5.4 11.88-11.88 11.88h-133.56c-6.66 0-12.06-5.4-12.06-11.88v0-165.06c0-6.66 5.4-12.06 12.06-12.06v0" fill="none" stroke="#005493" stroke-linecap="round" stroke-linejoin="round" stroke-width=".9"/><text x="446.04001" y="23.6" fill="#005493" font-family="Helvetica" font-size="14px" font-weight="bold"><tspan x="446.04001 455.22 464.57999 474.66 478.44 487.07999 495.54001 508.13998 515.88 519.65997 528.29999 532.26001" y="23.6">AVB domain 2</tspan></text>
<polyline points="104.22 139.88 104.22 154.82 104.22 194.42 104.22 209.36" fill="none" stroke="#a9a9a9" stroke-linecap="round" stroke-linejoin="round" stroke-width="9"/><path d="m502.38 137.36v-10.98-2.52c0-1.26 1.08-2.52 2.52-2.52v0h13.32c1.26 0 2.16-0.9 2.16-2.16v-2.34-10.98" fill="none" stroke="#005493" stroke-linecap="round" stroke-linejoin="round" stroke-width="4.86"/><path d="m245.88 264.8h10.98 10.08c4.32 0 7.92 3.6 7.92 7.92v9.18c0 4.5 3.6 8.1 8.1 8.1h9 10.98" fill="none" stroke="#a9a9a9" stroke-linecap="round" stroke-linejoin="round" stroke-width="4.86"/><path d="m74.88 238.7h-14.94 3.96-18.36c-3.6 0-6.66 2.88-6.66 6.66v6.66-3.96 14.94" fill="none" stroke="#005493" stroke-linecap="round" stroke-linejoin="round" stroke-width="9"/><path d="m133.38 110.72h15.12 12.96c4.32 0 7.92 3.6 7.92 7.92v14.22c0 4.32 3.6 7.92 8.1 7.92h48.96 14.94" fill="none" stroke="#a9a9a9" stroke-linecap="round" stroke-linejoin="round" stroke-width="9"/><path d="m74.88 110.72h-10.98-7.92c-4.5 0-8.1 3.6-8.1 7.92v12.24 10.98" fill="none" stroke="#a9a9a9" stroke-linecap="round" stroke-linejoin="round" stroke-width="4.86"/><path d="m104.22 81.38v-10.98-7.02c0-3.78-3.24-7.02-7.02-7.02h-24.84-10.98" fill="none" stroke="#a9a9a9" stroke-linecap="round" stroke-linejoin="round" stroke-width="4.86"/><path d="m270.72 170.12v10.98 13.86c0 4.5-3.6 8.1-8.1 8.1h-37.98c-4.32 0-7.92 3.6-7.92 7.92v13.5 10.98" fill="none" stroke="#a9a9a9" stroke-linecap="round" stroke-linejoin="round" stroke-width="4.86"/><path d="m475.38 164.36h-10.98-5.94c-3.42 0-6.12-2.7-6.12-5.94v0-24.3c0-3.06-2.34-5.4-5.4-5.4h-5.58-10.98" fill="none" stroke="#005493" stroke-linecap="round" stroke-linejoin="round" stroke-width="4.86"/><path d="m401.22 157.88v10.98 3.96c0 2.34 1.8 4.14 3.96 4.14h12.24c2.16 0 3.96 1.8 3.96 3.96v3.96 10.98" fill="none" stroke="#005493" stroke-linecap="round" stroke-linejoin="round" stroke-width="4.86"/><path d="m401.22 99.38v-14.94 3.96-1.98c0-1.08-0.9-1.98-1.98-1.98h-52.56c-0.9 0-1.8-0.9-1.8-1.8v0-1.8 4.14-15.12" fill="none" stroke="#005493" stroke-linecap="round" stroke-linejoin="round" stroke-width="9"/><path d="m371.88 128.72h-14.94 3.96-18.9c-3.42 0-6.12 2.7-6.12 5.94v0c0 3.42-2.7 6.12-6.12 6.12h-18.9 4.14-15.12" fill="none" stroke="#005493" stroke-linecap="round" stroke-linejoin="round" stroke-width="9"/><path d="m216.72 293.96v10.98 7.02c0 3.96 3.06 7.02 7.02 7.02h5.76c3.6 0 6.66 2.88 6.66 6.48v6.66 10.98" fill="none" stroke="#a9a9a9" stroke-linecap="round" stroke-linejoin="round" stroke-width="4.86"/><path d="m502.38 191.36v10.98 12.78c0 1.26-0.9 2.34-2.16 2.34v0c-1.26 0-2.34 0.9-2.34 2.16v13.14 10.98" fill="none" stroke="#a9a9a9" stroke-linecap="round" stroke-linejoin="round" stroke-width="4.86"/><path d="m483.48 137.36h37.98c4.32 0 7.92 3.6 7.92 8.1v37.98c0 4.32-3.6 7.92-7.92 7.92h-37.98c-4.5 0-8.1-3.6-8.1-7.92v-37.98c0-4.5 3.6-8.1 8.1-8.1z" fill="#005493"/><path d="m483.48 137.36h37.98c4.32 0 7.92 3.6 7.92 8.1v37.98c0 4.32-3.6 7.92-7.92 7.92h-37.98c-4.5 0-8.1-3.6-8.1-7.92v0-37.98c0-4.5 3.6-8.1 8.1-8.1v0 0" fill="none" stroke="#000" stroke-linecap="round" stroke-linejoin="round" stroke-width=".36"/><text x="58.32" y="388.82001" fill="#005493" font-family="Helvetica" font-size="14px" font-weight="bold"><tspan x="58.32 67.32 76.68 86.760002 90.720001 99.18 107.82 120.24 127.98 131.94 140.40001 144.36" y="388.82001">AVB domain 1</tspan></text>
<text x="487.79999" y="160.94" fill="#ffffff" font-family="Helvetica" font-size="14px" font-weight="bold"><tspan x="487.79999 496.79999 506.16" y="160.94">AVB</tspan></text>
<path d="m501.48 51.86h37.98c4.32 0 7.92 3.6 7.92 8.1v37.98c0 4.32-3.6 7.92-7.92 7.92h-37.98c-4.5 0-8.1-3.6-8.1-7.92v-37.98c0-4.5 3.6-8.1 8.1-8.1z" fill="#005493"/><path d="m501.48 51.86h37.98c4.32 0 7.92 3.6 7.92 8.1v37.98c0 4.32-3.6 7.92-7.92 7.92h-37.98c-4.5 0-8.1-3.6-8.1-7.92v0-37.98c0-4.5 3.6-8.1 8.1-8.1v0 0" fill="none" stroke="#000" stroke-linecap="round" stroke-linejoin="round" stroke-width=".36"/><text x="480.60001" y="176.96001" fill="#ffffff" font-family="Helvetica" font-size="14px" font-weight="bold"><tspan x="480.60001 489.23999 494.64001 498.42001 507.06 515.70001" y="176.96001">bridge</tspan></text>
<text x="507.78" y="68.419998" fill="#ffffff" font-family="Helvetica" font-size="12px" font-weight="bold"><tspan x="507.78 515.52002 523.62" y="68.419998" fill="#ffffff">AVB</tspan></text>
<text x="509.39999" y="82.459999" fill="#ffffff" font-family="Helvetica" font-size="12px" font-weight="bold"><tspan x="509.39999 516.06 523.26001 530.64001" y="82.459999" fill="#ffffff">end </tspan></text>
<path d="m483.48 243.74h28.98c4.32 0 7.92 3.6 7.92 7.92v28.98c0 4.5-3.6 8.1-7.92 8.1h-28.98c-4.5 0-8.1-3.6-8.1-8.1v-28.98c0-4.32 3.6-7.92 8.1-7.92z" fill="#30923b"/><path d="m483.48 243.74h28.98c4.32 0 7.92 3.6 7.92 7.92v28.98c0 4.5-3.6 8.1-7.92 8.1h-28.98c-4.5 0-8.1-3.6-8.1-8.1v0-28.98c0-4.32 3.6-7.92 8.1-7.92v0 0" fill="none" stroke="#000" stroke-linecap="round" stroke-linejoin="round" stroke-width=".36"/><text x="500.39999" y="96.5" fill="#ffffff" font-family="Helvetica" font-size="12px" font-weight="bold"><tspan x="500.39999 507.60001 514.97998 518.40002 525.59998 529.73999 532.97998" y="96.5">point 5</tspan></text>
<text x="486.89999" y="262.82001" fill="#ffffff" font-family="Helvetica" font-size="12px" font-weight="bold"><tspan x="486.89999 493.56 500.76001 508.14001" y="262.82001">end </tspan></text>
<path d="m402.48 195.86h37.98c4.32 0 7.92 3.6 7.92 8.1v37.98c0 4.32-3.6 7.92-7.92 7.92h-37.98c-4.5 0-8.1-3.6-8.1-7.92v-37.98c0-4.5 3.6-8.1 8.1-8.1z" fill="#005493"/><path d="m402.48 195.86h37.98c4.32 0 7.92 3.6 7.92 8.1v37.98c0 4.32-3.6 7.92-7.92 7.92h-37.98c-4.5 0-8.1-3.6-8.1-7.92v0-37.98c0-4.5 3.6-8.1 8.1-8.1v0 0" fill="none" stroke="#000" stroke-linecap="round" stroke-linejoin="round" stroke-width=".36"/><text x="482.76001" y="276.85999" fill="#ffffff" font-family="Helvetica" font-size="12px" font-weight="bold"><tspan x="482.76001 490.14001 497.51999 500.76001 508.13998" y="276.85999">point</tspan></text>
<text x="408.78" y="212.42" fill="#ffffff" font-family="Helvetica" font-size="12px" font-weight="bold"><tspan x="408.78 416.51999 424.62" y="212.42">AVB</tspan></text>
<text x="410.39999" y="226.46001" fill="#ffffff" font-family="Helvetica" font-size="12px" font-weight="bold"><tspan x="410.39999 417.06 424.26001 431.64001" y="226.46001">end </tspan></text>
<path d="m325.98 15.86h37.98c4.32 0 7.92 3.6 7.92 8.1v37.98c0 4.32-3.6 7.92-7.92 7.92h-37.98c-4.5 0-8.1-3.6-8.1-7.92v-37.98c0-4.5 3.6-8.1 8.1-8.1z" fill="#005493"/><path d="m325.98 15.86h37.98c4.32 0 7.92 3.6 7.92 8.1v37.98c0 4.32-3.6 7.92-7.92 7.92h-37.98c-4.5 0-8.1-3.6-8.1-7.92v0-37.98c0-4.5 3.6-8.1 8.1-8.1v0 0" fill="none" stroke="#000" stroke-linecap="round" stroke-linejoin="round" stroke-width=".36"/><text x="401.39999" y="240.5" fill="#ffffff" font-family="Helvetica" font-size="12px" font-weight="bold"><tspan x="401.39999 408.60001 415.98001 419.39999 426.60001 430.73999 433.98001" y="240.5">point 4</tspan></text>
<text x="332.28" y="32.419998" fill="#ffffff" font-family="Helvetica" font-size="12px" font-weight="bold"><tspan x="332.28 340.01999 348.12" y="32.419998">AVB</tspan></text>
<text x="333.89999" y="46.459999" fill="#ffffff" font-family="Helvetica" font-size="12px" font-weight="bold"><tspan x="333.89999 340.56 347.76001 355.14001" y="46.459999">end </tspan></text>
<path d="m195.48 235.46h42.48c4.32 0 7.92 3.6 7.92 8.1v42.48c0 4.32-3.6 7.92-7.92 7.92h-42.48c-4.5 0-8.1-3.6-8.1-7.92v-42.48c0-4.5 3.6-8.1 8.1-8.1z" fill="#30923b"/><path d="m195.48 235.46h42.48c4.32 0 7.92 3.6 7.92 8.1v42.48c0 4.32-3.6 7.92-7.92 7.92h-42.48c-4.5 0-8.1-3.6-8.1-7.92v0-42.48c0-4.5 3.6-8.1 8.1-8.1v0" fill="none" stroke="#000" stroke-linecap="round" stroke-linejoin="round" stroke-width=".36"/><text x="324.89999" y="60.5" fill="#ffffff" font-family="Helvetica" font-size="12px" font-weight="bold"><tspan x="324.89999 332.10001 339.48001 342.89999 350.10001 354.23999 357.48001" y="60.5">point 3</tspan></text>
<text x="201.06" y="253.28" fill="#ffffff" font-family="Helvetica" font-size="14px" font-weight="bold"><tspan x="201.06 209.7 218.16 226.8" y="253.28">non-</tspan></text>
<text x="201.96001" y="269.29999" fill="#ffffff" font-family="Helvetica" font-size="14px" font-weight="bold"><tspan x="201.96001 211.14 220.32001 230.58" y="269.29999">AVB </tspan></text>
<path d="m221.58 343.1h28.98c4.5 0 8.1 3.6 8.1 7.92v28.98c0 4.5-3.6 8.1-8.1 8.1h-28.98c-4.5 0-7.92-3.6-7.92-8.1v-28.98c0-4.32 3.42-7.92 7.92-7.92z" fill="#30923b"/><path d="m221.58 343.1h28.98c4.5 0 8.1 3.6 8.1 7.92v28.98c0 4.5-3.6 8.1-8.1 8.1h-28.98c-4.5 0-7.92-3.6-7.92-8.1v0-28.98c0-4.32 3.42-7.92 7.92-7.92v0 0" fill="none" stroke="#000" stroke-linecap="round" stroke-linejoin="round" stroke-width=".36"/><text x="194.94" y="285.32001" fill="#ffffff" font-family="Helvetica" font-size="14px" font-weight="bold"><tspan x="194.94 203.39999 208.8 212.75999 221.22 229.86" y="285.32001">bridge</tspan></text>
<text x="225" y="362.17999" fill="#ffffff" font-family="Helvetica" font-size="12px" font-weight="bold"><tspan x="225 231.66 239.03999 246.42" y="362.17999">end </tspan></text>
<path d="m33.48 141.86h28.98c4.32 0 7.92 3.6 7.92 8.1v28.98c0 4.32-3.6 7.92-7.92 7.92h-28.98c-4.5 0-8.1-3.6-8.1-7.92v-28.98c0-4.5 3.6-8.1 8.1-8.1z" fill="#30923b"/><path d="m33.48 141.86h28.98c4.32 0 7.92 3.6 7.92 8.1v28.98c0 4.32-3.6 7.92-7.92 7.92h-28.98c-4.5 0-8.1-3.6-8.1-7.92v0-28.98c0-4.5 3.6-8.1 8.1-8.1v0 0" fill="none" stroke="#000" stroke-linecap="round" stroke-linejoin="round" stroke-width=".36"/><text x="221.03999" y="376.22" fill="#ffffff" font-family="Helvetica" font-size="12px" font-weight="bold"><tspan x="221.03999 228.42 235.62 239.03999 246.42" y="376.22">point</tspan></text>
<text x="36.900002" y="160.94" fill="#ffffff" font-family="Helvetica" font-size="12px" font-weight="bold"><tspan x="36.900002 43.560001 50.759998 58.139999" y="160.94">end </tspan></text>
<path d="m24.48 33.86h28.98c4.32 0 7.92 3.6 7.92 8.1v28.98c0 4.32-3.6 7.92-7.92 7.92h-28.98c-4.5 0-8.1-3.6-8.1-7.92v-28.98c0-4.5 3.6-8.1 8.1-8.1z" fill="#30923b"/><path d="m24.48 33.86h28.98c4.32 0 7.92 3.6 7.92 8.1v28.98c0 4.32-3.6 7.92-7.92 7.92h-28.98c-4.5 0-8.1-3.6-8.1-7.92v0-28.98c0-4.5 3.6-8.1 8.1-8.1v0 0" fill="none" stroke="#000" stroke-linecap="round" stroke-linejoin="round" stroke-width=".36"/><text x="32.759998" y="174.98" fill="#ffffff" font-family="Helvetica" font-size="12px" font-weight="bold"><tspan x="32.759998 40.139999 47.52 50.759998 58.139999" y="174.98">point</tspan></text>
<text x="27.9" y="52.939999" fill="#ffffff" font-family="Helvetica" font-size="12px" font-weight="bold"><tspan x="27.9 34.560001 41.759998 49.139999" y="52.939999">end </tspan></text>
<path d="m310.86 263h37.98c4.5 0 8.1 3.6 8.1 7.92v37.98c0 4.5-3.6 8.1-8.1 8.1h-37.98c-4.32 0-7.92-3.6-7.92-8.1v-37.98c0-4.32 3.6-7.92 7.92-7.92z" fill="#005493"/><path d="m310.86 263h37.98c4.5 0 8.1 3.6 8.1 7.92v37.98c0 4.5-3.6 8.1-8.1 8.1h-37.98c-4.32 0-7.92-3.6-7.92-8.1v0-37.98c0-4.32 3.6-7.92 7.92-7.92v0 0" fill="none" stroke="#000" stroke-linecap="round" stroke-linejoin="round" stroke-width=".36"/><text x="23.76" y="66.980003" fill="#ffffff" font-family="Helvetica" font-size="12px" font-weight="bold"><tspan x="23.76 31.139999 38.52 41.759998 49.139999" y="66.980003">point</tspan></text>
<text x="317.34" y="279.56" fill="#ffffff" font-family="Helvetica" font-size="12px" font-weight="bold"><tspan x="317.34 325.07999 333" y="279.56">AVB</tspan></text>
<text x="318.78" y="293.60001" fill="#ffffff" font-family="Helvetica" font-size="12px" font-weight="bold"><tspan x="318.78 325.44 332.82001 340.20001" y="293.60001">end </tspan></text>
<text x="314.82001" y="307.64001" fill="#ffffff" font-family="Helvetica" font-size="12px" font-weight="bold"><tspan x="314.82001 322.20001 329.57999 332.82001 340.20001" y="307.64001">point</tspan></text>
<text x="141.12" y="165.98" fill="#000000" font-family="Helvetica" font-size="12px" font-weight="bold"><tspan x="141.12 144.53999 151.92 155.88 162.53999 167.22 177.84 184.5 191.88 195.12 201.96001 205.92 212.58" y="165.98">Intermediate </tspan></text>
<text x="147.24001" y="180.02" fill="#000000" font-family="Helvetica" font-size="12px" font-weight="bold"><tspan x="147.24001 154.62 161.28 167.94 171.18001 177.84 184.5 187.92 195.3 202.5 206.64" y="180.02">device not </tspan></text>
<text x="140.58" y="194.06" fill="#000000" font-family="Helvetica" font-size="12px" font-weight="bold"><tspan x="140.58 148.5 156.42 165.06 168.48 175.14 181.8 189.17999 195.84 203.03999 206.45999" y="194.06">AVB capable</tspan></text>
<text x="141.12" y="15.5" fill="#000000" font-family="Helvetica" font-size="12px" font-weight="bold"><tspan x="141.12 149.03999 153.72 161.10001 165.06 171.72 178.38 185.03999 188.46001 195.66 203.03999 209.7 213.12 216.36 223.74001 231.12 237.78 241.02 244.44 248.39999 255.06 257.94 266.57999 270 277.92001" y="15.5">Professional quality A/V </tspan></text>
<text x="148.5" y="29.540001" fill="#000000" font-family="Helvetica" font-size="12px" font-weight="bold"><tspan x="148.5 155.88 163.08 167.22 170.45999 177.84 185.22 191.88 198.54001 201.78 209.16 212.58 219.23999 222.48001 229.86 236.51999 240.48001 249.84 256.5 263.16 270.54001" y="29.540001">not possible between </tspan></text>
<text x="144.53999" y="43.580002" fill="#000000" font-family="Helvetica" font-size="12px" font-weight="bold"><tspan x="144.53999 152.46001 160.38 169.02 172.44 179.10001 186.3 193.67999 201.06 208.44 211.67999 219.06 223.02 229.67999 233.09999 239.75999 243 249.66 257.04001 264.41998 267.66 274.32001" y="43.580002">AVB endpoints 1 and 3 </tspan></text>
<text x="140.22" y="57.439999" fill="#000000" font-family="Helvetica" font-size="12px" font-weight="bold"><tspan x="140.22 146.88 150.3 157.67999 164.34 171 174.24001 178.2 185.58 192.24001 196.92 203.58 207 213.66 218.34 225 228.23999 235.62 243 250.38 254.34 262.07999 270 278.82001" y="57.439999">since there are non-AVB </tspan></text>
<text x="138.24001" y="71.480003" fill="#000000" font-family="Helvetica" font-size="12px" font-weight="bold"><tspan x="138.24001 141.48 144.89999 152.10001 158.75999 165.42 168.84 172.25999 179.46001 182.88 186.84 194.22 200.88 204.12 211.5 218.16 222.12 229.5 232.92 240.12 246.78 250.92 260.10001 266.94 273.60001 280.79999" y="71.480003">links in the path between </tspan></text>
<text x="188.46001" y="85.519997" fill="#000000" font-family="Helvetica" font-size="12px" font-weight="bold"><tspan x="188.46001 192.42 199.8 206.46001 209.88 213.84 223.2" y="85.519997">the two</tspan></text>
<text x="408.06" y="312.14001" fill="#000000" font-family="Helvetica" font-size="12px" font-weight="bold"><tspan x="408.06 415.79999 423.72 432.35999 435.78 443.16 450.35999 461.16 467.82001 471.06 478.44 481.86002 489.06 496.44 503.82001 511.20001 518.40002 525.06 529.73999 536.40002" y="312.14001">AVB domain boundary </tspan></text>
<text x="408.06" y="326" fill="#000000" font-family="Helvetica" font-size="12px" font-weight="bold"><tspan x="408.06 415.26001 422.64001 427.32001 431.28 435.23999 438.66 442.62 446.04001 449.28 453.23999 460.07999 464.57999 468 475.38 482.57999 486 490.67999 497.34 501.29999 507.95999 515.34003 522.72003 525.96002 533.34003 540.72003" y="326">port: filtering/retagging </tspan></text>
<polyline points="367.38 353.36 403.38 353.36" fill="none" stroke="#a9a9a9" stroke-linecap="round" stroke-linejoin="round" stroke-width="4.86"/><text x="408.06" y="340.04001" fill="#000000" font-family="Helvetica" font-size="12px" font-weight="bold"><tspan x="408.06 414.72 421.38 425.34 428.76001 435.42001" y="340.04001">active</tspan></text>
<polyline points="403.38 372.44 367.38 372.44" fill="none" stroke="#005493" stroke-linecap="round" stroke-linejoin="round" stroke-width="4.86"/><text x="408.06" y="356.60001" fill="#000000" font-family="Helvetica" font-size="12px" font-weight="bold"><tspan x="408.06 415.26001 422.64001 430.01999 433.98001 441.72 449.82001 458.45999 461.70001 465.12 468.35999 475.73999" y="356.60001">non-AVB link</tspan></text>
<polyline points="137.88 157.34 128.88 153.02" fill="none" stroke="#000" stroke-linecap="round" stroke-linejoin="round" stroke-width="4.86"/><polygon points="128.88 153.02 128.88 153.02 135 150.86 122.22 149.6 122.22 149.6 131.04 158.96"/><polyline points="122.22 149.6 131.04 158.96 128.88 153.02 128.88 153.02 135 150.86 122.22 149.6" fill="none" stroke="#000" stroke-width="4.86"/><text x="408.78" y="376.76001" fill="#000000" font-family="Helvetica" font-size="12px" font-weight="bold"><tspan x="408.78 416.51999 424.44 433.26001 436.5 439.92001 443.16 450.54001" y="376.76001">AVB link</tspan></text>
<text x="536.21997" y="227" fill="#000000" font-family="Helvetica" font-size="12px" font-weight="bold"><tspan x="536.21997 544.32001 551.52002 558.90002 562.85999 570.23999 577.62 580.85999 588.23999 592.20001" y="227">End-point </tspan></text>
<text x="536.21997" y="241.03999" fill="#000000" font-family="Helvetica" font-size="12px" font-weight="bold"><tspan x="536.21997 543.59998 550.26001 556.91998 560.34003 567" y="241.03999">device</tspan></text>
<text x="536.21997" y="255.08" fill="#000000" font-family="Helvetica" font-size="12px" font-weight="bold"><tspan x="536.21997 543.59998 550.97998 554.94 557.82001 565.56 573.65997" y="255.08">not AVB</tspan></text>
<path d="m105.48 312.86h37.98c4.32 0 7.92 3.6 7.92 7.92v37.98c0 4.5-3.6 8.1-7.92 8.1h-37.98c-4.5 0-8.1-3.6-8.1-8.1v-37.98c0-4.32 3.6-7.92 8.1-7.92z" fill="#005493"/><path d="m105.48 312.86h37.98c4.32 0 7.92 3.6 7.92 7.92v37.98c0 4.5-3.6 8.1-7.92 8.1h-37.98c-4.5 0-8.1-3.6-8.1-8.1v0-37.98c0-4.32 3.6-7.92 8.1-7.92v0 0" fill="none" stroke="#000" stroke-linecap="round" stroke-linejoin="round" stroke-width=".36"/><text x="536.21997" y="268.94" fill="#000000" font-family="Helvetica" font-size="12px" font-weight="bold"><tspan x="536.21997 542.88 549.53998 556.91998 563.58002 570.96002 574.20001" y="268.94">capable</tspan></text>
<text x="111.78" y="329.42001" fill="#ffffff" font-family="Helvetica" font-size="12px" font-weight="bold"><tspan x="111.78 119.52 127.62" y="329.42001">AVB</tspan></text>
<text x="113.4" y="343.45999" fill="#ffffff" font-family="Helvetica" font-size="12px" font-weight="bold"><tspan x="113.4 120.06 127.26 134.64" y="343.45999">end </tspan></text>
<path d="m104.22 267.86v10.98 5.58c0 3.06 2.34 5.4 5.4 5.4h8.82c3.24 0 5.94 2.7 5.94 6.12v5.94 10.98" fill="none" stroke="#005493" stroke-linecap="round" stroke-linejoin="round" stroke-width="4.86"/><path d="m381.96 319.88c0 3.78 3.06 6.84 6.66 6.84 3.78 0 6.84-3.06 6.84-6.84s-3.06-6.66-6.84-6.66c-3.6 0-6.66 2.88-6.66 6.66zm9.54 3.78c-2.16 1.62-5.04 1.08-6.66-0.9-0.54-0.9-0.9-1.8-0.9-2.88s0.36-1.98 0.9-2.88l6.66 6.66zm-5.58-7.56c1.98-1.62 5.04-1.08 6.48 0.9 0.72 0.9 0.9 1.98 0.9 2.88 0 1.08-0.18 1.98-0.9 2.88l-6.48-6.66z" fill="#ff2800"/><path d="m497.34 197.66c0 3.78 3.06 6.66 6.84 6.66s6.66-2.88 6.66-6.66-2.88-6.84-6.66-6.84-6.84 3.06-6.84 6.84zm9.72 3.78c-2.16 1.62-5.04 1.08-6.66-0.9-0.72-0.9-0.9-1.8-0.9-2.88s0.18-1.98 0.9-2.88l6.66 6.66zm-5.76-7.56c2.16-1.62 5.04-1.08 6.66 0.9 0.54 0.9 0.9 1.8 0.9 2.88s-0.36 1.98-0.9 2.88l-6.66-6.66z" fill="#ff2800"/><path d="m288.9 289.46c0 3.78 3.06 6.84 6.84 6.84 3.6 0 6.66-3.06 6.66-6.84s-3.06-6.66-6.66-6.66c-3.78 0-6.84 2.88-6.84 6.66zm9.54 3.78c-1.98 1.62-5.04 1.08-6.48-0.9-0.72-0.9-1.08-1.8-1.08-2.88s0.36-1.98 1.08-2.88l6.48 6.66zm-5.58-7.56c1.98-1.62 5.04-1.08 6.66 0.9 0.54 0.9 0.9 1.8 0.9 2.88s-0.36 1.98-0.9 2.88l-6.66-6.66z" fill="#ff2800"/><polyline points="104.22 139.88 104.22 209.36" fill="none" stroke="#00fdff" stroke-dasharray="8, 3" stroke-linecap="round" stroke-linejoin="round" stroke-width="4.68"/><path d="m263.34 176.6c0 3.78 3.06 6.66 6.84 6.66s6.66-2.88 6.66-6.66-2.88-6.84-6.66-6.84-6.84 3.06-6.84 6.84zm9.72 3.78c-2.16 1.62-5.04 1.08-6.66-0.9-0.72-0.9-0.9-1.8-0.9-2.88s0.18-1.98 0.9-2.88l6.66 6.66zm-5.76-7.56c2.16-1.62 5.04-1.08 6.66 0.9 0.54 0.9 0.9 1.8 0.9 2.88s-0.36 1.98-0.9 2.88l-6.66-6.66z" fill="#ff2800"/><polyline points="196.38 200.36 209.16 222.5" fill="none" stroke="#000" stroke-linecap="round" stroke-linejoin="round" stroke-width="4.86"/><polygon points="209.16 222.5 209.16 222.5 203.04 220.88 212.94 228.98 212.94 228.98 210.78 216.38"/><polyline points="212.94 228.98 210.78 216.38 209.16 222.5 209.16 222.5 203.04 220.88 212.94 228.98" fill="none" stroke="#000" stroke-width="4.86"/><path d="m74.88 238.7h-10.8-18.36c-3.78 0-6.84 3.06-6.84 6.66v6.84 10.8" fill="none" stroke="#00fdff" stroke-dasharray="8, 3" stroke-linecap="round" stroke-linejoin="round" stroke-width="4.68"/><path d="m132.66 110.72h28.8c4.32 0 7.92 3.6 7.92 7.92v9.72 6.3c0 3.42 2.88 6.12 6.3 6.12h54.9 10.8" fill="none" stroke="#00fdff" stroke-dasharray="8, 3" stroke-linecap="round" stroke-linejoin="round" stroke-width="4.68"/><path d="m401.22 99.38v-10.8-1.98c0-1.08-0.9-2.16-2.16-2.16h-52.2c-1.08 0-1.98-0.72-1.98-1.8v0-1.98-10.8" fill="none" stroke="#00fdff" stroke-dasharray="8, 3" stroke-linecap="round" stroke-linejoin="round" stroke-width="4.68"/><path d="m371.88 128.72h-10.8-19.44c-3.42 0-6.12 2.7-6.12 5.94v0c0 3.42-2.7 6.12-6.12 6.12h-18.72-10.8" fill="none" stroke="#00fdff" stroke-dasharray="8, 3" stroke-linecap="round" stroke-linejoin="round" stroke-width="4.68"/><path d="m227.34 140.24c0 3.78 3.06 6.84 6.84 6.84s6.66-3.06 6.66-6.84c0-3.6-2.88-6.66-6.66-6.66s-6.84 3.06-6.84 6.66zm9.72 3.78c-2.16 1.62-5.04 1.26-6.66-0.9-0.72-0.9-0.9-1.8-0.9-2.88 0-0.9 0.18-1.98 0.9-2.7l6.66 6.48zm-5.76-7.56c2.16-1.44 5.04-1.08 6.66 1.08 0.54 0.72 0.9 1.8 0.9 2.7 0 1.08-0.36 1.98-0.9 2.88l-6.66-6.66z" fill="#ff2800"/><path d="m97.38 202.16c0 3.78 3.06 6.66 6.84 6.66 3.6 0 6.66-2.88 6.66-6.66s-3.06-6.84-6.66-6.84c-3.78 0-6.84 3.06-6.84 6.84zm9.54 3.78c-1.98 1.62-5.04 1.08-6.48-0.9-0.72-0.9-1.08-1.8-1.08-2.88s0.36-1.98 1.08-2.88l6.48 6.66zm-5.58-7.56c2.16-1.62 5.04-1.08 6.66 0.9 0.54 0.9 0.9 1.8 0.9 2.88s-0.36 1.98-0.9 2.88l-6.66-6.66z" fill="#ff2800"/><polyline points="404.1 394.94 370.8 394.94" fill="none" stroke="#00fdff" stroke-dasharray="8, 3" stroke-linecap="round" stroke-linejoin="round" stroke-width="4.68"/><text x="104.4" y="357.5" fill="#ffffff" font-family="Helvetica" font-size="12px" font-weight="bold"><tspan x="104.4 111.6 118.98 122.4 129.60001 133.74001 136.98" y="357.5">point 2</tspan></text>
<path d="m82.98 81.38h42.48c4.32 0 7.92 3.6 7.92 8.1v42.48c0 4.32-3.6 7.92-7.92 7.92h-42.48c-4.5 0-8.1-3.6-8.1-7.92v-42.48c0-4.5 3.6-8.1 8.1-8.1z" fill="#30923b"/><path d="m82.98 81.38h42.48c4.32 0 7.92 3.6 7.92 8.1v42.48c0 4.32-3.6 7.92-7.92 7.92h-42.48c-4.5 0-8.1-3.6-8.1-7.92v0-42.48c0-4.5 3.6-8.1 8.1-8.1v0" fill="none" stroke="#000" stroke-linecap="round" stroke-linejoin="round" stroke-width=".36"/><text x="408.78" y="399.07999" fill="#000000" font-family="Helvetica" font-size="12px" font-weight="bold"><tspan x="408.78 415.44 422.82001 430.01999 437.39999 444.78 448.01999 455.39999 459.36002 462.78 469.44 472.67999 479.51999 486.72 494.10001 497.51999 504.17999 507.42001 515.52002 522.17999 526.14001" y="399.07999">endpoint 1 and 3 Path</tspan></text>
<text x="88.559998" y="99.199997" fill="#ffffff" font-family="Helvetica" font-size="14px" font-weight="bold"><tspan x="88.559998 97.199997 105.66 114.3" y="99.199997">non-</tspan></text>
<text x="89.459999" y="115.22" fill="#ffffff" font-family="Helvetica" font-size="14px" font-weight="bold"><tspan x="89.459999 98.639999 107.82 118.08" y="115.22">AVB </tspan></text>
<path d="m82.98 209.36h42.48c4.32 0 7.92 3.6 7.92 8.1v42.48c0 4.32-3.6 7.92-7.92 7.92h-42.48c-4.5 0-8.1-3.6-8.1-7.92v-42.48c0-4.5 3.6-8.1 8.1-8.1z" fill="#005493"/><path d="m82.98 209.36h42.48c4.32 0 7.92 3.6 7.92 8.1v42.48c0 4.32-3.6 7.92-7.92 7.92h-42.48c-4.5 0-8.1-3.6-8.1-7.92v0-42.48c0-4.5 3.6-8.1 8.1-8.1v0" fill="none" stroke="#000" stroke-linecap="round" stroke-linejoin="round" stroke-width=".36"/><text x="82.440002" y="131.24001" fill="#ffffff" font-family="Helvetica" font-size="14px" font-weight="bold"><tspan x="82.440002 90.900002 96.300003 100.26 108.72 117.36" y="131.24001">bridge</tspan></text>
<text x="89.459999" y="235.28" fill="#ffffff" font-family="Helvetica" font-size="14px" font-weight="bold"><tspan x="89.459999 98.639999 107.82" y="235.28">AVB</tspan></text>
<path d="m249.48 111.62h42.48c4.32 0 7.92 3.42 7.92 7.92v42.48c0 4.5-3.6 8.1-7.92 8.1h-42.48c-4.5 0-8.1-3.6-8.1-8.1v-42.48c0-4.5 3.6-7.92 8.1-7.92z" fill="#005493"/><path d="m249.48 111.62h42.48c4.32 0 7.92 3.42 7.92 7.92v42.48c0 4.5-3.6 8.1-7.92 8.1h-42.48c-4.5 0-8.1-3.6-8.1-8.1v0-42.48c0-4.5 3.6-7.92 8.1-7.92v0" fill="none" stroke="#000" stroke-linecap="round" stroke-linejoin="round" stroke-width=".36"/><text x="82.440002" y="251.3" fill="#ffffff" font-family="Helvetica" font-size="14px" font-weight="bold"><tspan x="82.440002 90.900002 96.300003 100.26 108.72 117.36" y="251.3">bridge</tspan></text>
<text x="255.96001" y="137.36" fill="#ffffff" font-family="Helvetica" font-size="14px" font-weight="bold"><tspan x="255.96001 265.14001 274.32001" y="137.36">AVB</tspan></text>
<path d="m379.98 99.38h42.48c4.32 0 7.92 3.6 7.92 8.1v42.48c0 4.32-3.6 7.92-7.92 7.92h-42.48c-4.5 0-8.1-3.6-8.1-7.92v-42.48c0-4.5 3.6-8.1 8.1-8.1z" fill="#005493"/><path d="m379.98 99.38h42.48c4.32 0 7.92 3.6 7.92 8.1v42.48c0 4.32-3.6 7.92-7.92 7.92h-42.48c-4.5 0-8.1-3.6-8.1-7.92v0-42.48c0-4.5 3.6-8.1 8.1-8.1v0" fill="none" stroke="#000" stroke-linecap="round" stroke-linejoin="round" stroke-width=".36"/><text x="248.94" y="153.38" fill="#ffffff" font-family="Helvetica" font-size="14px" font-weight="bold"><tspan x="248.94 257.39999 262.79999 266.76001 275.22 283.85999" y="153.38">bridge</tspan></text>
<text x="386.45999" y="125.3" fill="#ffffff" font-family="Helvetica" font-size="14px" font-weight="bold"><tspan x="386.45999 395.64001 404.82001" y="125.3">AVB</tspan></text>
<path d="m19.98 263h37.98c4.32 0 7.92 3.6 7.92 7.92v37.98c0 4.5-3.6 8.1-7.92 8.1h-37.98c-4.5 0-8.1-3.6-8.1-8.1v-37.98c0-4.32 3.6-7.92 8.1-7.92z" fill="#005493"/><path d="m19.98 263h37.98c4.32 0 7.92 3.6 7.92 7.92v37.98c0 4.5-3.6 8.1-7.92 8.1h-37.98c-4.5 0-8.1-3.6-8.1-8.1v0-37.98c0-4.32 3.6-7.92 8.1-7.92v0 0" fill="none" stroke="#000" stroke-linecap="round" stroke-linejoin="round" stroke-width=".36"/><text x="379.44" y="141.32001" fill="#ffffff" font-family="Helvetica" font-size="14px" font-weight="bold"><tspan x="379.44 387.89999 393.29999 397.26001 405.72 414.35999" y="141.32001">bridge</tspan></text>
<text x="26.280001" y="279.56" fill="#ffffff" font-family="Helvetica" font-size="12px" font-weight="bold"><tspan x="26.280001 34.02 42.119999" y="279.56">AVB</tspan></text>
<text x="27.9" y="293.60001" fill="#ffffff" font-family="Helvetica" font-size="12px" font-weight="bold"><tspan x="27.9 34.560001 41.759998 49.139999" y="293.60001">end </tspan></text>
<text x="18.9" y="307.64001" fill="#ffffff" font-family="Helvetica" font-size="12px" font-weight="bold"><tspan x="18.9 26.1 33.48 36.900002 44.100002 48.240002 51.480003" y="307.64001">point 1</tspan></text>
</svg>
